<svg width="64" height="64" viewBox="0 0 64 64" fill="none" xmlns="http://www.w3.org/2000/svg">
<path fill-rule="evenodd" clip-rule="evenodd" d="M7 16.2725C7.00753 16.2923 7.07308 16.4746 7.55078 16.7725C8.08779 17.1072 8.93171 17.4449 10.0625 17.7432C12.3101 18.336 15.4702 18.7148 19 18.7148C22.5298 18.7148 25.6899 18.336 27.9375 17.7432C29.0683 17.4449 29.9122 17.1072 30.4492 16.7725C30.9269 16.4746 30.9925 16.2923 31 16.2725V9.42871H33V30H54.4043C56.8733 30 58.875 32.0017 58.875 34.4707V46.3252C58.875 48.7942 56.8733 50.7959 54.4043 50.7959H49.168C47.583 50.7959 46.1324 51.6868 45.416 53.1006L42.0996 59.6455L40.3154 58.7412L43.6318 52.1963C44.6889 50.1103 46.8294 48.7959 49.168 48.7959H54.4043C55.7688 48.7959 56.875 47.6897 56.875 46.3252V34.4707C56.875 33.1062 55.7688 32 54.4043 32H31.1855C29.8211 32 28.7148 33.1062 28.7148 34.4707V46.3936C28.7148 47.7388 29.7908 48.8374 31.1357 48.8643L39.8037 49.0371L39.7637 51.0361L31.0957 50.8633C28.662 50.8146 26.7148 48.8277 26.7148 46.3936V36.3184C24.5133 36.7502 21.8512 37 19 37C15.3463 37 12.0023 36.593 9.54102 35.9141C8.3176 35.5766 7.25552 35.156 6.47559 34.6475C5.73795 34.1664 5.00017 33.434 5 32.415V9.42871H7V16.2725ZM31 27.3223C30.2922 27.6824 29.422 27.9922 28.4482 28.249C25.991 28.8972 22.6507 29.2861 19 29.2861C15.3493 29.2861 12.009 28.8972 9.55176 28.249C8.57802 27.9922 7.70778 27.6824 7 27.3223V32.418C7.00046 32.4205 7.0025 32.4264 7.00586 32.4355C7.01265 32.454 7.02906 32.4893 7.06738 32.541C7.14791 32.6496 7.30137 32.7992 7.56738 32.9727C8.1029 33.3219 8.94442 33.674 10.0732 33.9854C12.3168 34.6042 15.473 35 19 35C21.9338 35 24.6109 34.7247 26.7197 34.2764C26.8189 31.959 28.6815 30.0986 31 30.0039V27.3223ZM31 18.751C30.2922 19.1111 29.422 19.4209 28.4482 19.6777C25.991 20.3259 22.6507 20.7148 19 20.7148C15.3493 20.7148 12.009 20.3259 9.55176 19.6777C8.57802 19.4209 7.70778 19.1111 7 18.751V24.8438C7.00753 24.8636 7.07308 25.0459 7.55078 25.3438C8.08779 25.6785 8.93171 26.0162 10.0625 26.3145C12.3101 26.9073 15.4702 27.2861 19 27.2861C22.5298 27.2861 25.6899 26.9073 27.9375 26.3145C29.0683 26.0162 29.9122 25.6785 30.4492 25.3438C30.9269 25.0459 30.9925 24.8636 31 24.8438V18.751Z" fill="#163341"/>
<path d="M34.7041 38.7627C35.5568 38.7629 36.248 39.4539 36.248 40.3066C36.248 41.1594 35.5568 41.8513 34.7041 41.8516C33.8512 41.8516 33.1592 41.1596 33.1592 40.3066C33.1592 39.4537 33.8512 38.7627 34.7041 38.7627Z" fill="#163341"/>
<path d="M42.7949 38.7627C43.6476 38.7629 44.3388 39.4539 44.3389 40.3066C44.3389 41.1594 43.6477 41.8513 42.7949 41.8516C41.942 41.8516 41.25 41.1596 41.25 40.3066C41.25 39.4537 41.942 38.7627 42.7949 38.7627Z" fill="#163341"/>
<path d="M50.8857 38.7627C51.7386 38.7628 52.4297 39.4538 52.4297 40.3066C52.4297 41.1595 51.7386 41.8515 50.8857 41.8516C50.0328 41.8516 49.3408 41.1596 49.3408 40.3066C49.3409 39.4537 50.0328 38.7627 50.8857 38.7627Z" fill="#163341"/>
<path d="M19 5C22.6502 5 25.9899 5.38904 28.4473 6.03711C29.6686 6.35921 30.7292 6.75962 31.5078 7.24512C32.2337 7.69774 33 8.40963 33 9.42871C32.9999 10.4476 32.2336 11.1587 31.5078 11.6113C30.7292 12.0968 29.6686 12.4982 28.4473 12.8203C25.9899 13.4684 22.6502 13.8574 19 13.8574C15.3498 13.8574 12.0101 13.4684 9.55273 12.8203C8.33144 12.4982 7.2708 12.0968 6.49219 11.6113C5.81181 11.187 5.09572 10.5355 5.00879 9.61621L5 9.42871L5.00879 9.24121C5.09561 8.32164 5.81165 7.66947 6.49219 7.24512C7.2708 6.75962 8.33144 6.35921 9.55273 6.03711C12.0101 5.38904 15.3498 5 19 5ZM19 7C15.4706 7 12.3102 7.3779 10.0625 7.9707C8.93135 8.26903 8.08784 8.60753 7.55078 8.94238C7.13038 9.20452 7.02913 9.37669 7.00586 9.42773C7.02792 9.47698 7.12648 9.65047 7.55078 9.91504C8.08782 10.2498 8.93153 10.5875 10.0625 10.8857C12.3102 11.4785 15.4706 11.8574 19 11.8574C22.5294 11.8574 25.6898 11.4785 27.9375 10.8857C29.0685 10.5875 29.9122 10.2498 30.4492 9.91504C30.8725 9.65112 30.9708 9.47747 30.9932 9.42773C30.9696 9.37623 30.8686 9.20389 30.4492 8.94238C29.9122 8.60753 29.0686 8.26903 27.9375 7.9707C25.6898 7.3779 22.5294 7 19 7Z" fill="#FF4438"/>
<path d="M15 49.0469C15.0002 50.896 16.4995 52.3945 18.3486 52.3945H23L20.7939 50.1885L22.208 48.7744L26.8281 53.3955L22.208 58.0156L20.7939 56.6016L23.002 54.3945H18.3486C15.3949 54.3945 13.0002 52.0005 13 49.0469V41H15V49.0469Z" fill="#FF4438"/>
<path d="M61 15.4697C61 22.3697 55.41 27.9697 48.5 27.9697C47.1 27.9697 45.75 27.7397 44.5 27.3097H44.48C43.81 27.0797 43.17 26.7997 42.56 26.4697C42.52 26.4497 42.47 26.4197 42.42 26.3897C40.84 25.5097 39.47 24.2997 38.41 22.8497C37.8 22.0097 37.28 21.0997 36.89 20.1197C36.32 18.6797 36 17.1097 36 15.4697C36 8.56973 41.6 2.96973 48.5 2.96973C55.4 2.96973 61 8.56973 61 15.4697Z" fill="#FF4438"/>
<path d="M55.2005 16.1766C54.1612 17.3968 53.0428 18.8055 50.7946 18.8055C48.795 18.8055 48.0494 17.1416 47.9929 15.7995C48.4335 16.6647 49.2921 17.3746 50.6252 17.3413C53.2009 17.2637 54.9633 15.0785 54.9633 13.093C54.9633 10.7193 53.0767 9 49.8005 9C47.4507 9 44.5473 9.843 42.6381 11.163C42.6155 12.5273 43.4289 14.302 43.7226 14.1024C45.372 12.9932 46.6825 12.2722 47.9591 11.9061C46.0724 13.8805 41.5536 18.4616 41 19.2713C41.0565 20.0145 42.0393 22 42.5138 22C42.6607 22 42.785 21.9224 42.9318 21.7893C44.2875 20.3473 45.4059 19.0606 46.3887 17.8183C46.5356 19.6374 47.4846 21.8669 50.1507 21.8669C52.5344 21.8669 54.9068 20.2474 55.98 16.5981C56.1156 16.1544 55.5282 15.7995 55.2005 16.1766ZM52.4779 13.2261C52.4779 14.3797 51.2691 14.9454 50.1733 14.9454C49.5858 14.9454 49.134 14.8012 48.7724 14.6126C49.439 13.6809 50.0829 12.7159 50.7833 11.6954C52.0147 11.884 52.4779 12.5273 52.4779 13.2261Z" fill="white"/>
</svg>
