<svg width="64" height="64" viewBox="0 0 64 64" fill="none" xmlns="http://www.w3.org/2000/svg">
<path d="M30.5 12C30.0694 12 29.6868 12.2761 29.5508 12.6846L24.7422 27.127L10.6699 32.0566C10.2689 32.1971 10 32.5751 10 33C10 33.4249 10.2689 33.8029 10.6699 33.9434L24.7422 38.8721L29.5508 53.3154C29.6868 53.7239 30.0694 54 30.5 54C30.9306 54 31.3132 53.7239 31.4492 53.3154L36.2588 38.8721L50.3301 33.9434C50.7311 33.8029 51 33.4249 51 33C51 32.5751 50.7311 32.1971 50.3301 32.0566L36.2588 27.127L31.4492 12.6846C31.3132 12.2761 30.9306 12 30.5 12ZM34.5146 28.2246C34.6124 28.5183 34.8416 28.7502 35.1338 28.8525L46.9766 33L35.1338 37.1475L35.0273 37.1914C34.7864 37.3083 34.6003 37.5182 34.5146 37.7754L30.5 49.833L26.4854 37.7754L26.4424 37.668C26.3292 37.4255 26.1218 37.237 25.8662 37.1475L14.0244 33L25.8662 28.8525C26.1584 28.7502 26.3876 28.5183 26.4854 28.2246L30.5 16.166L34.5146 28.2246Z" fill="#163341"/>
<path d="M11 5C10.5723 5 10.192 5.27202 10.0537 5.67676L8.17676 11.1758L2.67676 13.0537C2.27202 13.192 2 13.5723 2 14C2 14.4277 2.27202 14.808 2.67676 14.9463L8.17676 16.8232L10.0537 22.3232C10.192 22.728 10.5723 23 11 23C11.4277 23 11.808 22.728 11.9463 22.3232L13.8242 16.8232L19.3232 14.9463C19.728 14.808 20 14.4277 20 14C20 13.5723 19.728 13.192 19.3232 13.0537L13.8242 11.1758L11.9463 5.67676L11.8838 5.53125C11.7125 5.20807 11.3742 5 11 5ZM12.0898 12.2871C12.1899 12.5799 12.4201 12.8101 12.7129 12.9102L15.9053 14L12.7129 15.0898L12.6064 15.1338C12.3649 15.2488 12.1774 15.4567 12.0898 15.7129L11 18.9043L9.91016 15.7129C9.81008 15.4201 9.57988 15.1899 9.28711 15.0898L6.0957 14L9.28711 12.9102C9.57988 12.8101 9.81008 12.5799 9.91016 12.2871L11 9.09473L12.0898 12.2871Z" fill="#FF4438"/>
<path d="M50 43C49.5723 43 49.192 43.272 49.0537 43.6768L46.9219 49.9209L40.6768 52.0537C40.272 52.192 40 52.5723 40 53C40 53.4277 40.272 53.808 40.6768 53.9463L46.9219 56.0781L49.0537 62.3232C49.192 62.728 49.5723 63 50 63C50.4277 63 50.808 62.728 50.9463 62.3232L53.0791 56.0781L59.3232 53.9463C59.728 53.808 60 53.4277 60 53C60 52.5723 59.728 52.192 59.3232 52.0537L53.0791 49.9209L50.9463 43.6768L50.8838 43.5312C50.7125 43.2081 50.3742 43 50 43ZM51.3447 51.0322C51.4448 51.3251 51.6749 51.5552 51.9678 51.6553L55.9062 53L51.9678 54.3447L51.8613 54.3877C51.6195 54.5027 51.4323 54.7113 51.3447 54.9678L50 58.9053L48.6553 54.9678L48.6123 54.8613C48.4973 54.6195 48.2887 54.4323 48.0322 54.3447L44.0947 53L48.0322 51.6553C48.3251 51.5552 48.5552 51.3251 48.6553 51.0322L50 47.0938L51.3447 51.0322Z" fill="#FF4438"/>
<path d="M61.5 15C61.5 21.9 55.91 27.5 49 27.5C47.6 27.5 46.25 27.27 45 26.84H44.98C44.31 26.61 43.67 26.33 43.06 26C43.02 25.98 42.97 25.95 42.92 25.92C41.34 25.04 39.97 23.83 38.91 22.38C38.3 21.54 37.78 20.63 37.39 19.65C36.82 18.21 36.5 16.64 36.5 15C36.5 8.1 42.1 2.5 49 2.5C55.9 2.5 61.5 8.1 61.5 15Z" fill="#FF4438"/>
<path d="M55.7005 15.6766C54.6612 16.8968 53.5428 18.3055 51.2946 18.3055C49.295 18.3055 48.5494 16.6416 48.4929 15.2995C48.9335 16.1647 49.7921 16.8746 51.1252 16.8413C53.7009 16.7637 55.4633 14.5785 55.4633 12.593C55.4633 10.2193 53.5767 8.5 50.3005 8.5C47.9507 8.5 45.0473 9.343 43.1381 10.663C43.1155 12.0273 43.9289 13.802 44.2226 13.6024C45.872 12.4932 47.1825 11.7722 48.4591 11.4061C46.5724 13.3805 42.0536 17.9616 41.5 18.7713C41.5565 19.5145 42.5393 21.5 43.0138 21.5C43.1607 21.5 43.285 21.4224 43.4318 21.2893C44.7875 19.8473 45.9059 18.5606 46.8887 17.3183C47.0356 19.1374 47.9846 21.3669 50.6507 21.3669C53.0344 21.3669 55.4068 19.7474 56.48 16.0981C56.6156 15.6544 56.0282 15.2995 55.7005 15.6766ZM52.9779 12.7261C52.9779 13.8797 51.7691 14.4454 50.6733 14.4454C50.0858 14.4454 49.634 14.3012 49.2724 14.1126C49.939 13.1809 50.5829 12.2159 51.2833 11.1954C52.5147 11.384 52.9779 12.0273 52.9779 12.7261Z" fill="white"/>
</svg>
