<svg width="64" height="64" viewBox="0 0 64 64" fill="none" xmlns="http://www.w3.org/2000/svg">
<path d="M21.1731 53.0271C20.8465 53.0271 20.5199 52.938 20.2131 52.7697L16.6698 50.6814C15.8978 50.2162 15.5415 49.2561 15.8285 48.405L16.9667 45.0695C16.3729 44.2679 15.8879 43.4068 15.5019 42.4764L12.1269 41.8133C11.2361 41.645 10.5829 40.8434 10.5829 39.9229V35.7561C10.5829 34.8356 11.2361 34.0339 12.1269 33.8657L15.5217 33.1927C15.8978 32.292 16.3828 31.4408 16.9667 30.6589L15.8186 27.274C15.5316 26.403 15.8879 25.443 16.65 24.9877L20.1933 22.8994C20.995 22.4342 21.9847 22.5925 22.5983 23.2953L24.8945 26.0071C25.8348 25.8884 26.7651 25.8884 27.6955 26.0071L29.9818 23.3052C30.6053 22.5925 31.5951 22.4243 32.3968 22.8895L35.9301 24.9778C36.7021 25.4331 37.0683 26.3931 36.7813 27.2542L35.6332 30.649C36.2172 31.4309 36.7021 32.2821 37.0782 33.1828L40.473 33.8558C41.3638 34.0339 42.017 34.8257 42.017 35.7462V39.913C42.017 40.8335 41.3638 41.6351 40.473 41.8034L37.1079 42.4665C36.7318 43.3969 36.237 44.258 35.6431 45.0596L36.7714 48.3852C37.0584 49.266 36.7021 50.2261 35.9202 50.6814L32.4067 52.7598C31.5951 53.225 30.6152 53.0666 30.0016 52.354L27.7648 49.7114C26.7849 49.8401 25.8249 49.8401 24.8351 49.7114L22.6082 52.3441C22.2222 52.7895 21.6878 53.0172 21.1533 53.0172L21.1731 53.0271ZM21.1533 24.6413L17.6793 26.6901L19.2035 31.0449L18.8571 31.4705C18.1445 32.3514 17.5803 33.3312 17.1845 34.4001L16.9964 34.9247L12.5228 35.8056L12.5822 39.9229L16.9865 40.7543L17.1746 41.2887C17.5606 42.3774 18.1247 43.3771 18.8472 44.258L19.1936 44.6835L17.709 49.0384L21.1533 51.0377L24.0631 47.5934L24.6273 47.6924C25.7556 47.8903 26.874 47.8903 28.0023 47.6924L28.5665 47.5934L31.4763 51.0377L34.9404 48.9889L33.436 44.6835L33.7824 44.258C34.5049 43.3771 35.0691 42.3774 35.4551 41.2887L35.6431 40.7543L40.1068 39.8734L40.0475 35.7561L35.6332 34.9247L35.4452 34.4001C35.0493 33.3312 34.4851 32.3415 33.7725 31.4705L33.4261 31.0449L34.9206 26.6406L31.4763 24.6413L28.5071 28.145L27.9528 28.046C26.8641 27.858 25.7754 27.858 24.6867 28.046L24.1324 28.145L21.1632 24.6413H21.1533Z" fill="#FF4438"/>
<path d="M26.3083 43.0307C23.4381 43.0307 21.1122 40.6949 21.1122 37.8346C21.1122 34.9742 23.448 32.6384 26.3083 32.6384C29.1687 32.6384 31.5045 34.9742 31.5045 37.8346C31.5045 40.6949 29.1687 43.0307 26.3083 43.0307ZM26.3083 34.608C24.5367 34.608 23.0917 36.053 23.0917 37.8247C23.0917 39.5963 24.5367 41.0413 26.3083 41.0413C28.08 41.0413 29.525 39.5963 29.525 37.8247C29.525 36.053 28.08 34.608 26.3083 34.608Z" fill="#163341"/>
<path d="M17.1929 18.594L16.3417 16.8125C19.4693 15.3279 22.8245 14.5757 26.3084 14.5757C28.9114 14.5757 31.4055 15.0013 33.7413 15.803C33.771 16.5453 33.8502 17.2777 33.9788 17.9903C31.5936 17.0599 29.0104 16.5552 26.3084 16.5552C23.1214 16.5552 20.0532 17.2381 17.1929 18.594Z" fill="#163341"/>
<path d="M49.5675 37.8346C49.5675 50.6517 39.1356 61.0935 26.3086 61.0935C13.4815 61.0935 3.04968 50.6517 3.04968 37.8346C3.04968 33.7865 4.1087 29.8474 6.08819 26.3635L4.08891 25.0966L9.8591 22.4243L9.91848 28.7982L7.76085 27.4225C5.97931 30.5897 5.02916 34.1626 5.02916 37.8346C5.02916 49.563 14.5802 59.114 26.3086 59.114C38.037 59.114 47.588 49.563 47.588 37.8346C47.588 35.0336 47.0436 32.3613 46.0539 29.9068C46.7665 30.0354 47.4989 30.1047 48.2412 30.1146C49.1023 32.5296 49.5675 35.1326 49.5675 37.8346Z" fill="#163341"/>
<path d="M61 15.5C61 22.4 55.41 28 48.5 28C47.1 28 45.75 27.77 44.5 27.34H44.48C43.81 27.11 43.17 26.83 42.56 26.5C42.52 26.48 42.47 26.45 42.42 26.42C40.84 25.54 39.47 24.33 38.41 22.88C37.8 22.04 37.28 21.13 36.89 20.15C36.32 18.71 36 17.14 36 15.5C36 8.6 41.6 3 48.5 3C55.4 3 61 8.6 61 15.5Z" fill="#FF4438"/>
<path d="M55.2005 16.1766C54.1612 17.3968 53.0428 18.8055 50.7946 18.8055C48.795 18.8055 48.0494 17.1416 47.9929 15.7995C48.4335 16.6647 49.2921 17.3746 50.6252 17.3413C53.2009 17.2637 54.9633 15.0785 54.9633 13.093C54.9633 10.7193 53.0767 9 49.8005 9C47.4507 9 44.5473 9.843 42.6381 11.163C42.6155 12.5273 43.4289 14.302 43.7226 14.1024C45.372 12.9932 46.6825 12.2722 47.9591 11.9061C46.0724 13.8805 41.5536 18.4616 41 19.2713C41.0565 20.0145 42.0393 22 42.5138 22C42.6607 22 42.785 21.9224 42.9318 21.7893C44.2875 20.3473 45.4059 19.0606 46.3887 17.8183C46.5356 19.6374 47.4846 21.8669 50.1507 21.8669C52.5344 21.8669 54.9068 20.2474 55.98 16.5981C56.1156 16.1544 55.5282 15.7995 55.2005 16.1766ZM52.4779 13.2261C52.4779 14.3797 51.2691 14.9454 50.1733 14.9454C49.5858 14.9454 49.134 14.8012 48.7724 14.6126C49.439 13.6809 50.0829 12.7159 50.7833 11.6954C52.0147 11.884 52.4779 12.5273 52.4779 13.2261Z" fill="white"/>
</svg>
